<svg width="64" height="42" viewBox="0 0 64 42" fill="none" xmlns="http://www.w3.org/2000/svg">
<path d="M59.3241 17.8689L3.03744 18.7203C1.35991 18.7457 0.0205689 20.1261 0.045942 21.8037C0.0713151 23.4812 1.45179 24.8205 3.12932 24.7952L59.4159 23.9438C61.0935 23.9184 62.4328 22.538 62.4074 20.8604C62.3821 19.1829 61.0016 17.8436 59.3241 17.8689Z" fill="#145134"/>
<path d="M61.7402 21.9557C60.8732 23.4263 58.8959 23.7717 57.5818 22.6821L38.3056 6.69873C37.2577 5.82989 36.9955 4.32892 37.6868 3.15629C38.5537 1.68562 40.531 1.34022 41.8452 2.4299L61.1214 18.4132C62.1692 19.2821 62.4314 20.783 61.7402 21.9557Z" fill="#145134"/>
<path d="M61.978 19.6847C61.067 18.2409 59.0803 17.9553 57.7995 19.0841L39.0163 35.6386C37.9947 36.5389 37.7776 38.0476 38.5037 39.1995C39.4149 40.6449 41.4035 40.931 42.6853 39.8011L61.4666 23.2444C62.4878 22.3442 62.7045 20.8359 61.978 19.6847Z" fill="#145134"/>
</svg>
