<svg width="64" height="43" viewBox="0 0 64 43" fill="none" xmlns="http://www.w3.org/2000/svg">
<path d="M4.39225 24.1715L60.6845 23.8768C62.3622 23.868 63.7152 22.5009 63.7064 20.8232C63.6976 19.1455 62.3304 17.7925 60.6527 17.8013L4.36045 18.096C2.68275 18.1048 1.32983 19.472 1.33861 21.1497C1.34739 22.8274 2.71455 24.1803 4.39225 24.1715Z" fill="#145134"/>
<path d="M2.01675 20.061C2.89818 18.599 4.87879 18.2732 6.18213 19.3758L25.2993 35.549C26.3385 36.4281 26.5859 37.9316 25.8831 39.0974C25.0016 40.5594 23.021 40.8852 21.7177 39.7826L2.60048 23.6094C1.56128 22.7303 1.31395 21.2268 2.01675 20.061Z" fill="#145134"/>
<path d="M1.75642 22.3296C2.6531 23.7823 4.63695 24.0875 5.92878 22.9714L24.8749 6.60348C25.9052 5.71329 26.1373 4.20691 25.4226 3.04789C24.5258 1.5935 22.54 1.28771 21.2472 2.4049L2.30301 18.775C1.273 19.6651 1.04141 21.1712 1.75642 22.3296Z" fill="#145134"/>
</svg>
